<mxfile host="e8a30e82-9bee-424f-93dc-0f7fe77e370b" modified="2020-09-16T13:41:32.426Z" agent="5.0 (Windows NT 10.0; Win64; x64) AppleWebKit/537.36 (KHTML, like Gecko) Code/1.49.0 Chrome/83.0.4103.122 Electron/9.2.1 Safari/537.36" etag="pjy26PYpvveqju3ou2R-" version="13.1.3">
    <diagram id="W7PRGZy6A3OHWf_IWzvV" name="Page-1">
        <mxGraphModel dx="1145" dy="792" grid="1" gridSize="10" guides="1" tooltips="1" connect="1" arrows="1" fold="1" page="1" pageScale="1" pageWidth="827" pageHeight="1169" math="0" shadow="0">
            <root>
                <mxCell id="0"/>
                <mxCell id="1" parent="0"/>
                <mxCell id="UH6hqWK-zKNZkn8MHM9C-1" value="Utilisateur&lt;br&gt;" style="shape=umlActor;verticalLabelPosition=bottom;verticalAlign=top;html=1;" parent="1" vertex="1">
                    <mxGeometry x="130" y="150" width="30" height="60" as="geometry"/>
                </mxCell>
                <mxCell id="UH6hqWK-zKNZkn8MHM9C-2" value="Administrateur&lt;br&gt;" style="shape=umlActor;verticalLabelPosition=bottom;verticalAlign=top;html=1;" parent="1" vertex="1">
                    <mxGeometry x="120" y="360" width="30" height="60" as="geometry"/>
                </mxCell>
                <mxCell id="UH6hqWK-zKNZkn8MHM9C-4" value="Voir les données" style="ellipse;whiteSpace=wrap;html=1;align=center;" parent="1" vertex="1">
                    <mxGeometry x="290" y="230" width="100" height="40" as="geometry"/>
                </mxCell>
                <mxCell id="UH6hqWK-zKNZkn8MHM9C-5" value="Chnger l'échelle" style="ellipse;whiteSpace=wrap;html=1;align=center;" parent="1" vertex="1">
                    <mxGeometry x="290" y="170" width="100" height="40" as="geometry"/>
                </mxCell>
                <mxCell id="UH6hqWK-zKNZkn8MHM9C-6" value="Voir les sources (données brutes)" style="ellipse;whiteSpace=wrap;html=1;align=center;" parent="1" vertex="1">
                    <mxGeometry x="280" y="110" width="120" height="50" as="geometry"/>
                </mxCell>
                <mxCell id="UH6hqWK-zKNZkn8MHM9C-7" value="Ajouter des sources" style="ellipse;whiteSpace=wrap;html=1;align=center;" parent="1" vertex="1">
                    <mxGeometry x="280" y="430" width="100" height="40" as="geometry"/>
                </mxCell>
                <mxCell id="UH6hqWK-zKNZkn8MHM9C-8" value="Mise a jour des données" style="ellipse;whiteSpace=wrap;html=1;align=center;" parent="1" vertex="1">
                    <mxGeometry x="280" y="335" width="100" height="40" as="geometry"/>
                </mxCell>
                <mxCell id="UH6hqWK-zKNZkn8MHM9C-10" value="" style="endArrow=classic;html=1;entryX=0;entryY=0.5;entryDx=0;entryDy=0;" parent="1" target="UH6hqWK-zKNZkn8MHM9C-6" edge="1">
                    <mxGeometry width="50" height="50" relative="1" as="geometry">
                        <mxPoint x="145" y="180" as="sourcePoint"/>
                        <mxPoint x="440" y="290" as="targetPoint"/>
                    </mxGeometry>
                </mxCell>
                <mxCell id="UH6hqWK-zKNZkn8MHM9C-11" value="" style="endArrow=classic;html=1;entryX=0;entryY=0.5;entryDx=0;entryDy=0;" parent="1" target="UH6hqWK-zKNZkn8MHM9C-5" edge="1">
                    <mxGeometry width="50" height="50" relative="1" as="geometry">
                        <mxPoint x="150" y="180" as="sourcePoint"/>
                        <mxPoint x="290" y="145" as="targetPoint"/>
                    </mxGeometry>
                </mxCell>
                <mxCell id="UH6hqWK-zKNZkn8MHM9C-12" value="" style="endArrow=classic;html=1;entryX=0;entryY=0.5;entryDx=0;entryDy=0;exitX=0.5;exitY=0.5;exitDx=0;exitDy=0;exitPerimeter=0;" parent="1" source="UH6hqWK-zKNZkn8MHM9C-1" target="UH6hqWK-zKNZkn8MHM9C-4" edge="1">
                    <mxGeometry width="50" height="50" relative="1" as="geometry">
                        <mxPoint x="180" y="195" as="sourcePoint"/>
                        <mxPoint x="300" y="155" as="targetPoint"/>
                    </mxGeometry>
                </mxCell>
                <mxCell id="UH6hqWK-zKNZkn8MHM9C-13" value="" style="endArrow=classic;html=1;entryX=0;entryY=0.5;entryDx=0;entryDy=0;exitX=0.5;exitY=0.5;exitDx=0;exitDy=0;exitPerimeter=0;" parent="1" source="UH6hqWK-zKNZkn8MHM9C-2" target="UH6hqWK-zKNZkn8MHM9C-7" edge="1">
                    <mxGeometry width="50" height="50" relative="1" as="geometry">
                        <mxPoint x="170" y="350" as="sourcePoint"/>
                        <mxPoint x="300" y="260" as="targetPoint"/>
                    </mxGeometry>
                </mxCell>
                <mxCell id="UH6hqWK-zKNZkn8MHM9C-17" value="Accès aux données (lecture)" style="ellipse;whiteSpace=wrap;html=1;align=center;" parent="1" vertex="1">
                    <mxGeometry x="460" y="155" width="150" height="70" as="geometry"/>
                </mxCell>
                <mxCell id="UH6hqWK-zKNZkn8MHM9C-18" value="Accès aux données (écriture et lecture)" style="ellipse;whiteSpace=wrap;html=1;align=center;" parent="1" vertex="1">
                    <mxGeometry x="450" y="375" width="150" height="70" as="geometry"/>
                </mxCell>
                <mxCell id="UH6hqWK-zKNZkn8MHM9C-19" value="Traitement des données" style="ellipse;whiteSpace=wrap;html=1;align=center;" parent="1" vertex="1">
                    <mxGeometry x="440" y="50" width="100" height="40" as="geometry"/>
                </mxCell>
                <mxCell id="UH6hqWK-zKNZkn8MHM9C-20" value="taux R du virus" style="ellipse;whiteSpace=wrap;html=1;align=center;" parent="1" vertex="1">
                    <mxGeometry x="290" y="50" width="100" height="40" as="geometry"/>
                </mxCell>
                <mxCell id="UH6hqWK-zKNZkn8MHM9C-21" value="" style="endArrow=classic;html=1;entryX=0;entryY=0.5;entryDx=0;entryDy=0;exitX=0.5;exitY=0.5;exitDx=0;exitDy=0;exitPerimeter=0;" parent="1" source="UH6hqWK-zKNZkn8MHM9C-2" target="UH6hqWK-zKNZkn8MHM9C-8" edge="1">
                    <mxGeometry width="50" height="50" relative="1" as="geometry">
                        <mxPoint x="145" y="400" as="sourcePoint"/>
                        <mxPoint x="290" y="460" as="targetPoint"/>
                    </mxGeometry>
                </mxCell>
                <mxCell id="UH6hqWK-zKNZkn8MHM9C-22" value="" style="endArrow=classic;html=1;dashed=1;exitX=1;exitY=0.5;exitDx=0;exitDy=0;entryX=0;entryY=0;entryDx=0;entryDy=0;" parent="1" source="UH6hqWK-zKNZkn8MHM9C-8" target="UH6hqWK-zKNZkn8MHM9C-18" edge="1">
                    <mxGeometry width="50" height="50" relative="1" as="geometry">
                        <mxPoint x="390" y="340" as="sourcePoint"/>
                        <mxPoint x="440" y="290" as="targetPoint"/>
                    </mxGeometry>
                </mxCell>
                <mxCell id="UH6hqWK-zKNZkn8MHM9C-24" value="" style="endArrow=classic;html=1;dashed=1;exitX=1;exitY=0.5;exitDx=0;exitDy=0;entryX=0.5;entryY=1;entryDx=0;entryDy=0;" parent="1" source="UH6hqWK-zKNZkn8MHM9C-4" target="UH6hqWK-zKNZkn8MHM9C-17" edge="1">
                    <mxGeometry width="50" height="50" relative="1" as="geometry">
                        <mxPoint x="390" y="405" as="sourcePoint"/>
                        <mxPoint x="481.96699141100885" y="395.25126265847075" as="targetPoint"/>
                    </mxGeometry>
                </mxCell>
                <mxCell id="UH6hqWK-zKNZkn8MHM9C-25" value="" style="endArrow=classic;html=1;dashed=1;exitX=1;exitY=0.5;exitDx=0;exitDy=0;entryX=0;entryY=0;entryDx=0;entryDy=0;" parent="1" source="UH6hqWK-zKNZkn8MHM9C-6" target="UH6hqWK-zKNZkn8MHM9C-17" edge="1">
                    <mxGeometry width="50" height="50" relative="1" as="geometry">
                        <mxPoint x="400" y="260" as="sourcePoint"/>
                        <mxPoint x="545" y="235" as="targetPoint"/>
                    </mxGeometry>
                </mxCell>
                <mxCell id="UH6hqWK-zKNZkn8MHM9C-26" value="" style="endArrow=classic;html=1;dashed=1;exitX=0.5;exitY=1;exitDx=0;exitDy=0;entryX=0.5;entryY=0;entryDx=0;entryDy=0;" parent="1" source="UH6hqWK-zKNZkn8MHM9C-5" target="UH6hqWK-zKNZkn8MHM9C-4" edge="1">
                    <mxGeometry width="50" height="50" relative="1" as="geometry">
                        <mxPoint x="410" y="270" as="sourcePoint"/>
                        <mxPoint x="555" y="245" as="targetPoint"/>
                    </mxGeometry>
                </mxCell>
                <mxCell id="UH6hqWK-zKNZkn8MHM9C-27" value="" style="endArrow=classic;html=1;entryX=0;entryY=0.5;entryDx=0;entryDy=0;exitX=0.5;exitY=0.5;exitDx=0;exitDy=0;exitPerimeter=0;" parent="1" source="UH6hqWK-zKNZkn8MHM9C-1" target="UH6hqWK-zKNZkn8MHM9C-20" edge="1">
                    <mxGeometry width="50" height="50" relative="1" as="geometry">
                        <mxPoint x="155" y="190" as="sourcePoint"/>
                        <mxPoint x="290" y="145" as="targetPoint"/>
                    </mxGeometry>
                </mxCell>
                <mxCell id="UH6hqWK-zKNZkn8MHM9C-28" value="" style="endArrow=classic;html=1;dashed=1;exitX=1;exitY=0.5;exitDx=0;exitDy=0;entryX=0;entryY=0.5;entryDx=0;entryDy=0;" parent="1" source="UH6hqWK-zKNZkn8MHM9C-20" target="UH6hqWK-zKNZkn8MHM9C-19" edge="1">
                    <mxGeometry width="50" height="50" relative="1" as="geometry">
                        <mxPoint x="410" y="145" as="sourcePoint"/>
                        <mxPoint x="491.96699141100885" y="175.25126265847086" as="targetPoint"/>
                    </mxGeometry>
                </mxCell>
                <mxCell id="UH6hqWK-zKNZkn8MHM9C-29" value="" style="endArrow=classic;html=1;dashed=1;exitX=0.5;exitY=1;exitDx=0;exitDy=0;entryX=0.5;entryY=0;entryDx=0;entryDy=0;" parent="1" source="UH6hqWK-zKNZkn8MHM9C-19" target="UH6hqWK-zKNZkn8MHM9C-17" edge="1">
                    <mxGeometry width="50" height="50" relative="1" as="geometry">
                        <mxPoint x="420" y="155" as="sourcePoint"/>
                        <mxPoint x="501.96699141100885" y="185.25126265847086" as="targetPoint"/>
                        <Array as="points">
                            <mxPoint x="535" y="130"/>
                        </Array>
                    </mxGeometry>
                </mxCell>
                <mxCell id="UH6hqWK-zKNZkn8MHM9C-30" value="" style="endArrow=classic;html=1;dashed=1;exitX=0.5;exitY=0;exitDx=0;exitDy=0;entryX=0.5;entryY=1;entryDx=0;entryDy=0;" parent="1" source="UH6hqWK-zKNZkn8MHM9C-7" target="UH6hqWK-zKNZkn8MHM9C-8" edge="1">
                    <mxGeometry width="50" height="50" relative="1" as="geometry">
                        <mxPoint x="350" y="220" as="sourcePoint"/>
                        <mxPoint x="360" y="410" as="targetPoint"/>
                    </mxGeometry>
                </mxCell>
                <mxCell id="N1ZP83jwYmZalf_szfUD-1" value="Authentification" style="ellipse;whiteSpace=wrap;html=1;" parent="1" vertex="1">
                    <mxGeometry x="260" y="540" width="140" height="70" as="geometry"/>
                </mxCell>
                <mxCell id="N1ZP83jwYmZalf_szfUD-2" value="Use" style="endArrow=open;endSize=12;dashed=1;html=1;exitX=0.5;exitY=1;exitDx=0;exitDy=0;" parent="1" source="UH6hqWK-zKNZkn8MHM9C-7" target="N1ZP83jwYmZalf_szfUD-1" edge="1">
                    <mxGeometry width="160" relative="1" as="geometry">
                        <mxPoint x="500" y="320" as="sourcePoint"/>
                        <mxPoint x="660" y="320" as="targetPoint"/>
                    </mxGeometry>
                </mxCell>
                <mxCell id="N1ZP83jwYmZalf_szfUD-3" value="Use" style="endArrow=open;endSize=12;dashed=1;html=1;exitX=1;exitY=1;exitDx=0;exitDy=0;entryX=1;entryY=0;entryDx=0;entryDy=0;" parent="1" source="UH6hqWK-zKNZkn8MHM9C-8" target="N1ZP83jwYmZalf_szfUD-1" edge="1">
                    <mxGeometry x="0.2208" y="-4" width="160" relative="1" as="geometry">
                        <mxPoint x="340" y="480" as="sourcePoint"/>
                        <mxPoint x="340" y="550" as="targetPoint"/>
                        <Array as="points">
                            <mxPoint x="410" y="430"/>
                            <mxPoint x="410" y="520"/>
                        </Array>
                        <mxPoint as="offset"/>
                    </mxGeometry>
                </mxCell>
                <mxCell id="2" value="Central Idea" style="ellipse;whiteSpace=wrap;html=1;align=center;newEdgeStyle={&quot;edgeStyle&quot;:&quot;entityRelationEdgeStyle&quot;,&quot;startArrow&quot;:&quot;none&quot;,&quot;endArrow&quot;:&quot;none&quot;,&quot;segment&quot;:10,&quot;curved&quot;:1};treeFolding=1;treeMoving=1;" vertex="1" parent="1">
                    <mxGeometry x="60" y="660" width="100" height="40" as="geometry"/>
                </mxCell>
            </root>
        </mxGraphModel>
    </diagram>
</mxfile>